<?xml version="1.0" standalone="no"?>
<!DOCTYPE svg PUBLIC "-//W3C//DTD SVG 20010904//EN"
 "http://www.w3.org/TR/2001/REC-SVG-20010904/DTD/svg10.dtd">
<svg version="1.0" xmlns="http://www.w3.org/2000/svg"
 width="596.000000pt" height="596.000000pt" viewBox="0 0 596.000000 596.000000"
 preserveAspectRatio="xMidYMid meet">

<g transform="translate(0.000000,596.000000) scale(0.100000,-0.100000)"
fill="#000000" stroke="none">
<path d="M3560 5854 c0 -8 5 -12 10 -9 6 4 8 11 5 16 -9 14 -15 11 -15 -7z"/>
<path d="M2973 5758 c-61 -66 -142 -176 -199 -268 -62 -102 -164 -306 -164
-329 0 -9 -6 -11 -17 -6 -153 64 -339 100 -477 92 -50 -2 -98 -8 -107 -11 -30
-13 -39 -268 -15 -444 6 -51 11 -94 9 -95 -1 -2 -40 1 -85 5 -76 8 -314 -5
-327 -17 -8 -9 0 -118 15 -188 24 -116 83 -249 156 -352 49 -69 168 -181 229
-216 32 -19 59 -37 59 -40 0 -4 -69 -46 -152 -94 -84 -48 -156 -90 -161 -94
-9 -9 -10 -1657 -2 -1672 4 -5 495 -9 1281 -9 l1274 0 0 45 c0 31 5 47 15 51
19 8 19 24 0 24 -13 0 -15 44 -13 363 2 283 6 361 16 359 6 -1 12 5 12 13 0 8
-6 14 -12 13 -10 -2 -14 74 -16 352 -2 325 -1 356 15 368 15 11 16 13 1 25 -9
6 -18 25 -20 41 -3 25 -20 38 -160 119 -87 50 -158 93 -158 96 0 3 27 21 60
40 72 41 184 149 239 230 55 80 102 181 128 271 26 89 48 240 36 250 -18 17
-129 27 -268 24 l-147 -3 6 37 c11 72 19 339 12 415 -9 93 -7 92 -181 92 -135
-1 -247 -21 -360 -67 -38 -15 -72 -24 -76 -20 -4 4 -24 45 -45 92 -49 109
-133 255 -197 345 -57 80 -155 195 -166 195 -4 0 -21 -15 -38 -32z m109 -262
c174 -253 298 -591 298 -809 0 -84 -20 -203 -44 -259 -21 -49 -69 -128 -78
-128 -4 0 -59 29 -121 65 -63 36 -119 65 -126 65 -14 0 -115 -53 -186 -98 -27
-17 -55 -32 -60 -32 -15 0 -69 97 -88 156 -42 128 -45 264 -12 426 15 73 52
194 64 213 4 6 13 28 20 50 38 114 233 435 264 435 6 0 38 -38 69 -84z m-672
-417 c104 -30 152 -55 146 -77 -43 -141 -59 -382 -32 -500 21 -95 49 -167 87
-226 16 -27 27 -52 22 -56 -4 -4 -31 -20 -60 -36 -45 -25 -54 -27 -75 -15 -50
26 -149 125 -203 201 -121 171 -165 318 -172 574 l-6 169 109 -6 c64 -4 140
-15 184 -28z m1492 -56 c11 -330 -97 -617 -298 -790 -92 -79 -95 -81 -147 -53
-84 44 -82 40 -39 111 43 70 65 131 83 226 17 89 6 327 -19 426 -22 90 -30 79
88 121 84 29 163 43 262 45 l67 1 3 -87z m-1916 -464 c60 -10 64 -12 75 -47
36 -114 139 -263 252 -367 56 -53 68 -68 56 -76 -7 -5 -42 -26 -77 -46 -56
-31 -69 -35 -108 -29 -136 18 -315 189 -395 376 -25 60 -59 169 -59 192 0 12
184 10 256 -3z m2304 0 c0 -30 -34 -134 -66 -205 -83 -184 -253 -342 -386
-360 -41 -6 -54 -2 -110 29 -35 20 -69 41 -77 46 -10 7 4 26 63 81 100 95 166
186 221 304 43 92 46 95 82 101 21 4 43 8 48 10 28 9 225 4 225 -6z m-1189
-329 c49 -29 67 -45 62 -54 -18 -31 -137 -156 -148 -156 -19 0 -168 161 -159
170 23 22 151 88 162 85 7 -3 45 -23 83 -45z m359 -209 c47 -28 97 -57 113
-63 15 -7 27 -16 27 -20 0 -12 -111 -146 -157 -191 l-39 -38 -65 44 c-91 61
-219 158 -219 166 0 4 14 20 31 37 17 16 55 59 86 96 l55 68 42 -24 c22 -14
79 -47 126 -75z m-672 27 c28 -35 64 -76 81 -92 17 -17 31 -33 31 -37 0 -9
-127 -106 -218 -168 l-64 -43 -35 33 c-58 57 -165 188 -159 197 5 8 117 76
216 130 25 13 49 28 55 33 21 20 46 6 93 -53z m-463 -215 c10 -14 51 -64 92
-110 41 -47 73 -85 72 -86 -2 -1 -17 -10 -34 -20 -55 -33 -235 -117 -263 -123
-24 -4 -38 6 -121 90 -52 53 -91 99 -87 103 18 18 292 172 307 172 9 1 25 -11
34 -26z m1565 -57 c79 -47 146 -88 147 -93 5 -15 -174 -193 -193 -193 -24 0
-235 98 -260 121 -11 10 -28 19 -37 19 -24 0 -22 5 17 48 69 74 146 167 146
174 0 21 47 0 180 -76z m-802 -9 c37 -30 95 -73 130 -96 96 -64 98 -55 -53
-175 -44 -34 -96 -75 -116 -89 l-36 -27 -79 56 c-93 66 -204 162 -204 175 0 5
19 22 43 37 55 35 204 149 212 162 12 20 37 9 103 -43z m-1140 -251 c40 -41
72 -79 72 -84 0 -7 -132 -52 -154 -52 -3 0 -6 47 -6 105 0 58 4 105 8 105 4 0
40 -33 80 -74z m2212 -31 c0 -58 -3 -105 -6 -105 -10 0 -148 41 -153 46 -5 5
140 164 150 164 5 0 9 -47 9 -105z m-1510 5 c20 -20 180 -150 203 -164 43 -29
54 -19 -147 -130 l-107 -58 -37 26 c-20 14 -75 56 -121 93 -46 37 -99 79 -117
93 -19 14 -33 27 -33 30 0 3 68 39 152 81 l152 75 25 -20 c14 -12 27 -23 30
-26z m900 -19 c14 -10 60 -32 103 -51 42 -18 77 -35 77 -39 -1 -3 -31 -30 -68
-59 -37 -28 -96 -75 -132 -103 -113 -90 -99 -87 -187 -39 -137 74 -203 114
-201 121 2 3 48 42 103 86 55 44 118 96 140 115 l39 36 51 -25 c27 -14 61 -33
75 -42z m-1312 -223 c48 -40 89 -76 92 -79 3 -3 31 -25 63 -48 31 -24 57 -45
57 -47 0 -10 -281 -124 -304 -124 -29 0 -271 260 -263 283 3 10 221 83 255 86
7 1 52 -32 100 -71z m1714 53 c29 -11 80 -27 113 -36 33 -9 66 -18 73 -21 10
-3 5 -16 -17 -47 -55 -74 -213 -237 -236 -243 -28 -7 -307 104 -303 121 2 7
48 48 103 92 55 45 118 97 140 117 47 41 57 42 127 17z m-813 -160 c64 -39
124 -73 134 -76 9 -4 17 -11 17 -16 0 -9 -142 -107 -230 -159 l-50 -29 -47 28
c-84 49 -233 152 -233 160 0 5 13 14 30 21 16 7 76 41 132 76 57 35 109 64
117 64 8 0 66 -31 130 -69z m-1207 -183 l56 -63 -55 -18 c-30 -10 -58 -15 -61
-12 -10 10 -15 155 -6 155 5 0 34 -28 66 -62z m2228 -18 c0 -54 -4 -80 -12
-80 -6 0 -35 8 -65 17 l-53 17 58 62 c31 34 60 62 65 63 4 0 7 -35 7 -79z
m-1505 -12 c62 -46 161 -114 210 -143 15 -9 8 -16 -46 -49 -143 -86 -231 -136
-241 -136 -9 0 -129 83 -165 115 -6 5 -43 35 -82 65 -39 30 -70 58 -71 61 0 3
17 11 38 17 20 6 91 36 157 66 66 30 122 55 125 55 3 0 37 -23 75 -51z m849
23 c100 -47 199 -89 229 -96 15 -4 27 -11 27 -15 0 -4 -38 -36 -85 -71 -47
-35 -115 -88 -152 -116 -37 -29 -73 -53 -80 -53 -16 0 -293 163 -293 172 0 4
33 29 72 55 40 27 104 72 143 100 38 29 72 53 74 53 2 0 31 -13 65 -29z
m-1240 -289 c70 -56 139 -110 153 -119 24 -16 24 -17 7 -31 -11 -7 -79 -43
-151 -79 l-133 -65 -72 63 c-122 108 -225 246 -202 269 6 6 62 28 125 49 88
29 118 36 130 27 9 -6 73 -57 143 -114z m1828 67 c50 -15 68 -24 68 -37 0 -43
-138 -209 -242 -293 l-37 -30 -133 65 c-73 36 -141 71 -150 78 -16 12 -5 22
99 103 65 50 139 109 165 132 l48 42 57 -20 c32 -11 88 -29 125 -40z m-928
-129 c80 -47 146 -88 146 -92 0 -10 -285 -178 -301 -177 -13 0 -42 17 -234
133 -36 22 -62 43 -57 48 15 15 287 177 294 175 4 -1 72 -40 152 -87z m-1232
-227 c32 -32 58 -61 58 -64 0 -8 -103 -49 -120 -49 -6 0 -10 37 -10 85 0 47 3
85 7 85 4 0 33 -26 65 -57z m678 37 c15 -11 78 -51 140 -89 l112 -69 -49 -22
c-78 -34 -213 -80 -237 -80 -53 0 -291 104 -291 127 0 11 260 151 283 152 8 1
26 -8 42 -19z m902 -7 c28 -16 60 -33 72 -40 12 -7 51 -26 89 -43 37 -18 67
-36 67 -40 0 -24 -237 -130 -291 -130 -29 0 -158 43 -243 81 l-50 21 54 32
c29 17 92 57 139 88 47 31 92 57 99 57 7 1 36 -11 64 -26z m648 -58 c0 -48 -4
-85 -10 -85 -10 0 -113 39 -119 46 -5 5 111 123 122 124 4 0 7 -38 7 -85z
m-1988 -162 l42 -28 -57 -3 c-31 -2 -85 -2 -119 0 l-63 3 65 27 c36 14 71 27
78 27 7 1 31 -11 54 -26z m1799 1 c35 -14 66 -28 68 -30 2 -2 -49 -4 -115 -4
l-119 0 45 30 c25 16 48 30 51 30 3 0 34 -12 70 -26z m-931 -24 c11 -7 3 -10
-30 -10 -33 0 -41 3 -30 10 8 5 22 10 30 10 8 0 22 -5 30 -10z"/>
<path d="M2810 5110 c0 -5 5 -10 10 -10 6 0 10 5 10 10 0 6 -4 10 -10 10 -5 0
-10 -4 -10 -10z"/>
<path d="M3560 4364 c0 -8 5 -12 10 -9 6 4 8 11 5 16 -9 14 -15 11 -15 -7z"/>
<path d="M2070 4364 c0 -8 5 -12 10 -9 6 4 8 11 5 16 -9 14 -15 11 -15 -7z"/>
<path d="M2070 3620 c0 -5 5 -10 10 -10 6 0 10 5 10 10 0 6 -4 10 -10 10 -5 0
-10 -4 -10 -10z"/>
<path d="M2810 3620 c0 -5 5 -10 10 -10 6 0 10 5 10 10 0 6 -4 10 -10 10 -5 0
-10 -4 -10 -10z"/>
<path d="M1320 5110 c0 -5 5 -10 10 -10 6 0 10 5 10 10 0 6 -4 10 -10 10 -5 0
-10 -4 -10 -10z"/>
<path d="M4300 5110 c0 -5 5 -10 10 -10 6 0 10 5 10 10 0 6 -4 10 -10 10 -5 0
-10 -4 -10 -10z"/>
<path d="M575 4371 c-3 -5 -1 -12 5 -16 5 -3 10 1 10 9 0 18 -6 21 -15 7z"/>
<path d="M5050 4359 c0 -5 5 -7 10 -4 6 3 10 8 10 11 0 2 -4 4 -10 4 -5 0 -10
-5 -10 -11z"/>
<path d="M570 3620 c0 -5 5 -10 10 -10 6 0 10 5 10 10 0 6 -4 10 -10 10 -5 0
-10 -4 -10 -10z"/>
<path d="M1320 3620 c0 -5 5 -10 10 -10 6 0 10 5 10 10 0 6 -4 10 -10 10 -5 0
-10 -4 -10 -10z"/>
<path d="M5050 3620 c0 -5 5 -10 10 -10 6 0 10 5 10 10 0 6 -4 10 -10 10 -5 0
-10 -4 -10 -10z"/>
<path d="M5795 3620 c-3 -5 -1 -10 4 -10 6 0 11 5 11 10 0 6 -2 10 -4 10 -3 0
-8 -4 -11 -10z"/>
<path d="M575 2881 c-3 -5 -1 -12 5 -16 5 -3 10 1 10 9 0 18 -6 21 -15 7z"/>
<path d="M5796 2881 c-4 -5 -2 -12 3 -15 5 -4 12 -2 15 3 4 5 2 12 -3 15 -5 4
-12 2 -15 -3z"/>
<path d="M570 2130 c0 -5 5 -10 10 -10 6 0 10 5 10 10 0 6 -4 10 -10 10 -5 0
-10 -4 -10 -10z"/>
<path d="M1320 2130 c0 -5 5 -10 10 -10 6 0 10 5 10 10 0 6 -4 10 -10 10 -5 0
-10 -4 -10 -10z"/>
<path d="M5050 2130 c0 -5 5 -10 10 -10 6 0 10 5 10 10 0 6 -4 10 -10 10 -5 0
-10 -4 -10 -10z"/>
<path d="M5790 2130 c0 -5 7 -10 15 -10 8 0 15 5 15 10 0 6 -7 10 -15 10 -8 0
-15 -4 -15 -10z"/>
<path d="M3004 1821 c-53 -24 -80 -60 -94 -125 -17 -81 -12 -86 86 -86 69 0
85 3 93 17 9 17 15 17 98 -5 48 -12 102 -22 118 -22 45 0 117 40 137 76 23 40
37 114 27 142 -8 20 -15 22 -86 22 -53 0 -85 -5 -100 -15 -18 -13 -29 -13 -89
0 -92 19 -141 18 -190 -4z"/>
<path d="M3902 1518 c-19 -24 -262 -787 -255 -800 7 -14 297 -9 316 5 9 6 23
32 30 57 l13 45 96 3 c106 3 98 7 113 -66 4 -18 15 -37 25 -42 23 -12 310 -13
328 -1 11 6 4 38 -33 157 -26 82 -56 174 -67 204 -11 30 -28 84 -39 120 -10
36 -38 122 -60 192 -40 119 -44 126 -72 132 -16 3 -109 6 -207 6 -130 0 -180
-3 -188 -12z m241 -320 c15 -73 27 -139 27 -145 0 -9 -20 -13 -65 -13 -77 0
-76 -2 -45 131 32 132 40 159 48 159 5 0 20 -60 35 -132z"/>
<path d="M1523 1508 c-11 -17 -17 -491 -8 -656 l7 -132 167 2 166 3 3 117 c3
135 -9 123 127 132 112 8 168 31 220 88 128 143 89 352 -80 432 l-56 26 -269
0 c-204 0 -271 -3 -277 -12z m421 -209 c50 -39 26 -109 -44 -130 -61 -19 -70
-10 -70 69 0 38 3 72 7 75 14 15 81 6 107 -14z"/>
<path d="M2333 1508 c-7 -8 -10 -152 -9 -403 l1 -390 175 0 175 0 0 400 0 400
-166 3 c-125 2 -169 -1 -176 -10z"/>
<path d="M2786 1508 c-3 -7 -7 -182 -10 -389 -6 -318 -4 -378 8 -388 9 -8 57
-11 152 -9 l139 3 5 157 c3 86 8 159 11 162 3 3 29 -58 58 -137 77 -208 49
-187 261 -187 l180 0 10 24 c10 27 7 747 -4 765 -11 16 -250 15 -264 -2 -6 -7
-11 -42 -12 -77 -2 -142 -13 -262 -21 -247 -5 8 -30 75 -55 148 -26 74 -53
146 -60 162 l-15 27 -190 0 c-143 0 -191 -3 -193 -12z"/>
<path d="M575 1391 c-3 -5 -1 -12 5 -16 5 -3 10 1 10 9 0 18 -6 21 -15 7z"/>
<path d="M1320 640 c0 -5 5 -10 10 -10 6 0 10 5 10 10 0 6 -4 10 -10 10 -5 0
-10 -4 -10 -10z"/>
<path d="M2060 640 c0 -5 7 -10 15 -10 8 0 15 5 15 10 0 6 -7 10 -15 10 -8 0
-15 -4 -15 -10z"/>
<path d="M2810 640 c0 -5 5 -10 10 -10 6 0 10 5 10 10 0 6 -4 10 -10 10 -5 0
-10 -4 -10 -10z"/>
<path d="M3560 640 c0 -5 5 -10 10 -10 6 0 10 5 10 10 0 6 -4 10 -10 10 -5 0
-10 -4 -10 -10z"/>
<path d="M4300 640 c0 -5 5 -10 10 -10 6 0 10 5 10 10 0 6 -4 10 -10 10 -5 0
-10 -4 -10 -10z"/>
</g>
</svg>
